<?xml version="1.0" encoding="iso-8859-1"?>
<!-- Generator: Adobe Illustrator 19.0.0, SVG Export Plug-In . SVG Version: 6.00 Build 0)  -->
<svg version="1.1" id="Capa_1" xmlns="http://www.w3.org/2000/svg" xmlns:xlink="http://www.w3.org/1999/xlink" x="0px" y="0px"
	 viewBox="0 0 511.987 511.987" style="enable-background:new 0 0 511.987 511.987;" xml:space="preserve">
<g>
	<g>
		<g>
			<path d="M236.426,40.153L247.46,29.12v73.267c-0.001,2.263,0.898,4.434,2.499,6.035c1.6,1.6,3.771,2.499,6.035,2.499
				c2.263,0.001,4.434-0.898,6.035-2.499c1.6-1.6,2.499-3.771,2.499-6.035V29.12l11.034,11.034c2.151,2.178,5.304,3.037,8.262,2.251
				c2.958-0.786,5.269-3.097,6.055-6.055c0.786-2.958-0.073-6.111-2.251-8.262L262.034,2.494c-3.341-3.325-8.741-3.325-12.081,0
				L224.36,28.087c-3.281,3.341-3.256,8.701,0.054,12.012S233.086,43.434,236.426,40.153z"/>
			<path d="M407.093,134.02l11.034-11.033v73.267c-0.001,2.263,0.898,4.434,2.499,6.035c1.6,1.6,3.771,2.499,6.035,2.499
				c2.263,0.001,4.434-0.898,6.035-2.499c1.6-1.6,2.499-3.771,2.499-6.035v-73.267l11.034,11.034
				c2.151,2.178,5.304,3.037,8.262,2.251c2.958-0.786,5.269-3.097,6.055-6.055c0.786-2.958-0.073-6.111-2.251-8.262L432.7,96.361
				c-3.341-3.325-8.741-3.325-12.081,0l-25.592,25.593c-3.281,3.341-3.256,8.701,0.054,12.012S403.752,137.3,407.093,134.02z"/>
			<path d="M65.76,134.02l11.034-11.033v73.267c-0.001,2.263,0.898,4.434,2.499,6.035c1.6,1.6,3.771,2.499,6.035,2.499
				c2.263,0.001,4.434-0.898,6.035-2.499c1.6-1.6,2.499-3.771,2.499-6.035v-73.267l11.034,11.034
				c3.338,3.296,8.711,3.279,12.029-0.038c3.317-3.317,3.334-8.69,0.038-12.029L91.367,96.361c-3.341-3.325-8.741-3.325-12.081,0
				l-25.592,25.593c-3.281,3.341-3.256,8.701,0.054,12.012S62.419,137.3,65.76,134.02z"/>
			<path d="M466.902,391.85c22.574-14.122,33.059-41.492,25.7-67.082c-7.359-25.59-30.782-43.208-57.409-43.182
				c-0.854,0-1.685,0.093-2.53,0.128c-7.589-25.287-30.802-42.653-57.203-42.795c-0.852,0-1.688,0.081-2.533,0.117
				c-7.593-25.282-30.803-42.642-57.2-42.784c-0.852,0-1.688,0.081-2.533,0.117c-7.47-25.367-30.756-42.784-57.2-42.784
				s-49.73,17.417-57.2,42.784c-0.845-0.036-1.681-0.117-2.533-0.117c-26.397,0.141-49.607,17.502-57.2,42.784
				c-0.845-0.036-1.681-0.117-2.533-0.117c-26.401,0.141-49.614,17.507-57.203,42.795c-0.845-0.035-1.676-0.128-2.53-0.128
				c-26.628-0.027-50.051,17.591-57.41,43.182c-7.359,25.59,3.127,52.96,25.701,67.082C22.63,403.636,8.554,426.893,8.527,452.253
				v42.667c0.011,9.421,7.645,17.056,17.067,17.067h460.8c9.421-0.011,17.056-7.646,17.067-17.067v-42.667
				C503.433,426.893,489.357,403.636,466.902,391.85z M419.384,301.769c1.426-0.529,2.88-0.982,4.355-1.355
				c1.172-0.324,2.307-0.732,3.522-0.958c12.489-2.466,25.425,0.811,35.233,8.926c9.808,8.115,15.45,20.209,15.365,32.938
				c0.075,16.272-9.111,31.17-23.683,38.409c-14.573,7.24-31.994,5.56-44.916-4.33s-19.093-26.268-15.911-42.226
				c0.154-0.794,0.432-1.54,0.629-2.319c0.439-1.832,0.999-3.633,1.677-5.391c0.316-0.789,0.717-1.532,1.078-2.298
				c0.766-1.654,1.637-3.256,2.608-4.798c0.435-0.681,0.914-1.328,1.386-1.981c1.083-1.5,2.262-2.929,3.53-4.277
				c0.536-0.568,1.081-1.123,1.647-1.66c1.342-1.261,2.764-2.435,4.256-3.514c0.668-0.486,1.323-0.987,2.021-1.434
				c1.471-0.92,2.997-1.749,4.569-2.483C417.628,302.598,418.473,302.13,419.384,301.769z M361.863,258.273
				c1.218-0.407,2.492-0.686,3.757-0.985c3.216-0.823,6.52-1.26,9.839-1.301c18.203,0.088,34.372,11.644,40.35,28.837
				c-0.297,0.101-0.561,0.263-0.856,0.368c-2.277,0.82-4.502,1.777-6.662,2.868c-0.473,0.237-0.964,0.439-1.428,0.689
				c-2.131,1.17-4.189,2.469-6.161,3.89c-0.83,0.587-1.635,1.192-2.432,1.82c-1.611,1.267-3.157,2.616-4.631,4.041
				c-0.841,0.816-1.627,1.669-2.418,2.532c-1.161,1.266-2.267,2.579-3.319,3.938c-0.613,0.796-1.229,1.58-1.801,2.406
				c-1.353,1.948-2.588,3.974-3.699,6.069c-0.377,0.714-0.703,1.448-1.051,2.179c-0.926,1.929-1.746,3.907-2.458,5.924
				c-0.189,0.54-0.415,1.059-0.589,1.606c-0.799,2.54-1.425,5.131-1.875,7.756c-0.114,0.643-0.205,1.289-0.297,1.938
				c-0.426,2.805-0.65,5.636-0.673,8.472c-0.022-2.837-0.247-5.67-0.672-8.475c-0.092-0.647-0.183-1.29-0.296-1.931
				c-0.45-2.626-1.077-5.218-1.877-7.76c-0.174-0.546-0.4-1.066-0.589-1.606c-0.712-2.018-1.533-3.995-2.458-5.924
				c-0.348-0.73-0.674-1.465-1.051-2.179c-1.112-2.096-2.348-4.124-3.702-6.073c-0.57-0.825-1.186-1.606-1.797-2.401
				c-1.051-1.364-2.157-2.677-3.32-3.94c-0.791-0.863-1.577-1.717-2.418-2.532c-1.474-1.425-3.02-2.774-4.631-4.041
				c-0.796-0.627-1.6-1.231-2.429-1.818c-1.974-1.421-4.032-2.721-6.164-3.891c-0.465-0.25-0.955-0.451-1.428-0.689
				c-2.16-1.091-4.385-2.049-6.662-2.868c-0.278-0.099-0.526-0.251-0.806-0.347c0.235-0.692,0.549-1.344,0.819-2.019
				c0.497-1.321,1.061-2.616,1.688-3.88c0.207-0.397,0.471-0.758,0.69-1.148c0.873-1.587,1.847-3.118,2.915-4.581l0.062-0.075
				c3.913-5.19,8.943-9.433,14.719-12.415c0.314-0.16,0.653-0.274,0.971-0.427C358.594,259.525,360.21,258.848,361.863,258.273z
				 M237.814,298.499c-1.474-1.425-3.02-2.774-4.631-4.041c-0.796-0.627-1.6-1.231-2.429-1.818
				c-1.974-1.421-4.032-2.721-6.164-3.891c-0.465-0.25-0.955-0.451-1.428-0.689c-2.16-1.091-4.385-2.049-6.662-2.868
				c-0.278-0.099-0.526-0.251-0.806-0.347c0.235-0.692,0.549-1.344,0.819-2.019c0.497-1.321,1.061-2.616,1.688-3.88
				c0.207-0.397,0.471-0.758,0.69-1.148c0.873-1.587,1.847-3.118,2.915-4.581l0.062-0.075c3.913-5.19,8.943-9.433,14.719-12.415
				c0.313-0.16,0.653-0.274,0.971-0.427c1.57-0.774,3.186-1.451,4.839-2.027c1.218-0.407,2.492-0.686,3.757-0.985
				c0.895-0.217,1.767-0.5,2.682-0.658c0.322-0.064,0.695-0.094,1.034-0.148c1.994-0.307,4.008-0.47,6.026-0.487l0.223,0.002
				c2.007,0.018,4.011,0.18,5.995,0.485c0.34,0.054,0.714,0.084,1.038,0.148c0.914,0.158,1.786,0.442,2.682,0.658
				c1.266,0.299,2.539,0.578,3.757,0.985c1.653,0.576,3.269,1.253,4.839,2.027c0.318,0.153,0.658,0.267,0.971,0.427
				c5.776,2.982,10.806,7.225,14.719,12.415l0.062,0.075c1.068,1.464,2.041,2.994,2.915,4.581c0.219,0.39,0.483,0.751,0.69,1.148
				c0.627,1.264,1.191,2.559,1.688,3.88c0.27,0.676,0.584,1.327,0.819,2.019c-0.28,0.096-0.528,0.247-0.806,0.347
				c-2.277,0.82-4.502,1.777-6.662,2.868c-0.473,0.237-0.963,0.439-1.428,0.689c-2.131,1.17-4.189,2.469-6.161,3.89
				c-0.83,0.587-1.635,1.192-2.432,1.82c-1.611,1.267-3.157,2.616-4.631,4.041c-0.841,0.816-1.627,1.669-2.418,2.532
				c-1.161,1.266-2.267,2.579-3.319,3.938c-0.613,0.796-1.229,1.58-1.801,2.406c-1.353,1.948-2.588,3.974-3.699,6.069
				c-0.377,0.714-0.703,1.448-1.051,2.179c-0.926,1.929-1.746,3.907-2.458,5.924c-0.189,0.54-0.415,1.059-0.589,1.606
				c-0.799,2.54-1.425,5.131-1.875,7.756c-0.114,0.643-0.205,1.289-0.297,1.938c-0.425,2.804-0.65,5.636-0.673,8.472
				c-0.022-2.837-0.247-5.67-0.672-8.475c-0.092-0.647-0.183-1.29-0.296-1.931c-0.45-2.626-1.077-5.218-1.877-7.76
				c-0.174-0.546-0.4-1.066-0.589-1.606c-0.712-2.018-1.533-3.995-2.458-5.924c-0.348-0.73-0.674-1.465-1.051-2.179
				c-1.112-2.096-2.348-4.124-3.702-6.073c-0.57-0.825-1.186-1.606-1.797-2.401c-1.051-1.364-2.157-2.677-3.32-3.94
				C239.441,300.168,238.655,299.315,237.814,298.499z M222.118,375.244c-12.896,9.842-30.259,11.516-44.797,4.318
				c-14.539-7.197-23.735-22.02-23.727-38.242c0.012-2.736,0.288-5.464,0.823-8.146c0.154-0.794,0.432-1.54,0.629-2.319
				c0.439-1.832,0.999-3.633,1.677-5.391c0.316-0.789,0.717-1.532,1.078-2.298c0.766-1.654,1.637-3.256,2.608-4.798
				c0.435-0.681,0.914-1.328,1.386-1.981c1.083-1.5,2.262-2.929,3.53-4.277c0.536-0.568,1.081-1.123,1.647-1.66
				c1.342-1.261,2.764-2.435,4.256-3.514c0.668-0.486,1.323-0.987,2.021-1.434c1.471-0.92,2.997-1.749,4.569-2.483
				c0.877-0.42,1.722-0.888,2.633-1.249c1.426-0.529,2.88-0.982,4.355-1.355c1.172-0.324,2.307-0.732,3.522-0.958
				c2.589-0.508,5.221-0.774,7.859-0.795h0.145c2.639,0.021,5.27,0.287,7.859,0.795c1.216,0.226,2.35,0.633,3.522,0.958
				c1.475,0.373,2.929,0.826,4.355,1.355c0.911,0.361,1.756,0.829,2.633,1.249c1.572,0.734,3.098,1.564,4.569,2.483
				c0.698,0.447,1.353,0.948,2.021,1.434c1.493,1.079,2.914,2.252,4.256,3.514c0.567,0.538,1.112,1.092,1.647,1.66
				c1.268,1.348,2.447,2.777,3.53,4.277c0.472,0.654,0.951,1.301,1.386,1.981c0.971,1.542,1.842,3.145,2.608,4.798
				c0.362,0.766,0.762,1.509,1.078,2.298c0.678,1.758,1.238,3.559,1.677,5.391c0.197,0.779,0.476,1.524,0.629,2.319
				C241.21,349.096,235.014,365.402,222.118,375.244z M273.884,333.174c0.154-0.794,0.432-1.54,0.629-2.319
				c0.439-1.832,0.999-3.633,1.677-5.391c0.316-0.789,0.717-1.532,1.078-2.298c0.766-1.654,1.637-3.256,2.608-4.798
				c0.435-0.681,0.914-1.328,1.386-1.981c1.083-1.5,2.262-2.929,3.53-4.277c0.536-0.568,1.081-1.123,1.647-1.66
				c1.342-1.261,2.764-2.435,4.256-3.514c0.668-0.486,1.323-0.987,2.021-1.434c1.471-0.92,2.997-1.749,4.569-2.483
				c0.877-0.42,1.722-0.888,2.633-1.249c1.426-0.529,2.88-0.982,4.355-1.355c1.172-0.324,2.307-0.732,3.522-0.958
				c2.569-0.502,5.178-0.766,7.796-0.788l0.253-0.002c2.623,0.022,5.239,0.287,7.814,0.79c1.216,0.226,2.35,0.633,3.522,0.958
				c1.475,0.373,2.929,0.826,4.355,1.355c0.911,0.361,1.756,0.829,2.633,1.249c1.572,0.734,3.098,1.564,4.569,2.483
				c0.698,0.447,1.353,0.948,2.021,1.434c1.493,1.079,2.914,2.252,4.256,3.514c0.567,0.538,1.111,1.092,1.647,1.66
				c1.268,1.348,2.447,2.777,3.53,4.277c0.472,0.654,0.951,1.301,1.386,1.981c0.971,1.542,1.842,3.145,2.608,4.798
				c0.361,0.766,0.762,1.509,1.078,2.298c0.678,1.758,1.238,3.559,1.677,5.391c0.197,0.779,0.476,1.524,0.629,2.319
				c3.109,15.923-3.086,32.231-15.983,42.075c-12.897,9.843-30.261,11.517-44.8,4.319c-14.539-7.199-23.735-22.023-23.726-38.247
				C273.072,338.584,273.348,335.856,273.884,333.174z M302.124,215.608c1.227-0.41,2.51-0.693,3.786-0.992
				c3.209-0.819,6.505-1.254,9.817-1.295c18.206,0.085,34.379,11.646,40.35,28.846v0c-0.373,0.127-0.716,0.311-1.086,0.445
				c-0.83,0.307-1.637,0.661-2.451,1.004c-10.572,4.378-19.654,11.716-26.154,21.133c-0.243,0.35-0.473,0.709-0.709,1.064
				c-0.803,1.218-1.598,2.434-2.312,3.713c-0.879,1.559-1.689,3.16-2.429,4.805c-0.324,0.73-0.592,1.487-0.887,2.233
				c-0.532,1.326-1.026,2.667-1.464,4.038c-0.111,0.352-0.271,0.681-0.375,1.036c-0.492-0.02-0.996,0.008-1.496,0
				c-0.332-0.006-0.654-0.05-0.987-0.05s-0.655,0.044-0.987,0.05c-0.501,0.008-1.004-0.02-1.496,0
				c-0.105-0.355-0.265-0.684-0.375-1.036c-0.438-1.371-0.931-2.713-1.464-4.038c-0.296-0.746-0.563-1.504-0.887-2.233
				c-0.74-1.645-1.55-3.248-2.431-4.809c-0.712-1.276-1.507-2.491-2.308-3.706c-0.236-0.356-0.466-0.716-0.71-1.066
				c-6.499-9.415-15.579-16.752-26.148-21.13c-0.817-0.344-1.625-0.699-2.458-1.007c-0.353-0.128-0.681-0.304-1.037-0.425
				c0.226-0.664,0.529-1.289,0.786-1.937c0.507-1.352,1.083-2.677,1.726-3.971c0.201-0.385,0.456-0.734,0.668-1.112
				c0.877-1.597,1.855-3.136,2.929-4.608l0.072-0.086c3.909-5.187,8.934-9.427,14.705-12.407c0.331-0.169,0.688-0.29,1.024-0.45
				C298.887,216.849,300.487,216.179,302.124,215.608z M255.994,170.654c18.234,0,34.45,11.593,40.35,28.845
				c-0.373,0.127-0.716,0.311-1.086,0.445c-0.83,0.307-1.637,0.661-2.451,1.004c-10.572,4.378-19.654,11.716-26.154,21.133
				c-0.243,0.35-0.473,0.709-0.709,1.064c-0.803,1.218-1.598,2.434-2.312,3.712c-0.879,1.559-1.689,3.161-2.429,4.805
				c-0.324,0.73-0.592,1.487-0.887,2.233c-0.532,1.326-1.026,2.667-1.464,4.038c-0.111,0.352-0.271,0.681-0.375,1.036
				c-0.817-0.033-1.642-0.05-2.483-0.05c-0.842,0-1.667,0.017-2.483,0.05c-0.105-0.355-0.265-0.684-0.375-1.036
				c-0.438-1.371-0.931-2.712-1.464-4.038c-0.296-0.746-0.563-1.504-0.887-2.233c-0.74-1.645-1.55-3.248-2.431-4.809
				c-0.712-1.276-1.507-2.491-2.308-3.706c-0.236-0.356-0.466-0.716-0.71-1.066c-6.499-9.415-15.579-16.752-26.148-21.13
				c-0.817-0.344-1.625-0.699-2.458-1.007c-0.369-0.134-0.712-0.317-1.084-0.444C221.544,182.247,237.76,170.654,255.994,170.654z
				 M196.26,213.32c3.312,0.041,6.607,0.476,9.816,1.295c1.276,0.3,2.559,0.582,3.786,0.992c1.636,0.571,3.236,1.241,4.791,2.007
				c0.336,0.16,0.694,0.282,1.024,0.45c5.77,2.98,10.796,7.22,14.705,12.406l0.072,0.086c1.073,1.472,2.052,3.011,2.929,4.608
				c0.211,0.378,0.467,0.727,0.668,1.112c0.642,1.293,1.218,2.619,1.726,3.971c0.257,0.649,0.56,1.273,0.786,1.937
				c-0.357,0.122-0.685,0.297-1.039,0.426c-0.83,0.307-1.637,0.661-2.451,1.004c-10.572,4.378-19.654,11.716-26.154,21.133
				c-0.243,0.35-0.473,0.709-0.709,1.064c-0.803,1.218-1.598,2.434-2.312,3.713c-0.879,1.559-1.689,3.16-2.429,4.805
				c-0.324,0.73-0.592,1.487-0.887,2.233c-0.532,1.326-1.026,2.667-1.464,4.038c-0.111,0.352-0.271,0.681-0.375,1.036
				c-0.816-0.032-1.641-0.049-2.483-0.049s-1.667,0.017-2.483,0.05c-0.105-0.355-0.265-0.684-0.375-1.036
				c-0.438-1.371-0.931-2.713-1.464-4.038c-0.296-0.746-0.563-1.504-0.887-2.233c-0.74-1.645-1.55-3.248-2.431-4.809
				c-0.712-1.276-1.507-2.491-2.308-3.706c-0.236-0.356-0.466-0.716-0.71-1.066c-6.499-9.415-15.579-16.752-26.148-21.13
				c-0.817-0.344-1.625-0.699-2.458-1.007c-0.369-0.134-0.712-0.317-1.084-0.444C161.882,224.966,178.054,213.405,196.26,213.32z
				 M96.177,284.824c5.974-17.196,22.145-28.754,40.35-28.837c3.302,0.041,6.587,0.473,9.788,1.288
				c1.289,0.302,2.583,0.588,3.822,1.002c1.609,0.563,3.182,1.222,4.712,1.973c0.363,0.172,0.749,0.304,1.106,0.486
				c5.724,2.96,10.714,7.161,14.607,12.297c0.055,0.072,0.12,0.135,0.174,0.208c1.04,1.431,1.99,2.925,2.845,4.474
				c0.239,0.423,0.525,0.815,0.749,1.247c0.645,1.229,1.143,2.539,1.667,3.835c0.274,0.685,0.592,1.347,0.831,2.049
				c-0.28,0.096-0.528,0.247-0.806,0.347c-2.277,0.82-4.502,1.777-6.662,2.868c-0.473,0.237-0.964,0.439-1.428,0.689
				c-2.131,1.17-4.188,2.469-6.161,3.89c-0.83,0.587-1.635,1.192-2.432,1.82c-1.611,1.267-3.157,2.616-4.631,4.041
				c-0.841,0.816-1.627,1.669-2.418,2.532c-1.161,1.266-2.267,2.579-3.319,3.938c-0.612,0.796-1.229,1.58-1.801,2.406
				c-1.353,1.948-2.588,3.974-3.699,6.069c-0.377,0.714-0.703,1.448-1.051,2.179c-0.926,1.929-1.746,3.907-2.458,5.924
				c-0.189,0.54-0.415,1.059-0.589,1.606c-0.799,2.54-1.425,5.131-1.875,7.756c-0.114,0.643-0.205,1.289-0.297,1.938
				c-0.426,2.804-0.651,5.635-0.674,8.472c-0.022-2.837-0.247-5.67-0.672-8.475c-0.092-0.647-0.183-1.29-0.296-1.931
				c-0.45-2.626-1.077-5.218-1.877-7.76c-0.174-0.546-0.4-1.066-0.589-1.606c-0.712-2.018-1.533-3.995-2.458-5.924
				c-0.348-0.73-0.674-1.465-1.051-2.179c-1.112-2.096-2.348-4.124-3.702-6.073c-0.57-0.825-1.186-1.606-1.797-2.401
				c-1.051-1.364-2.157-2.677-3.32-3.94c-0.791-0.863-1.577-1.717-2.418-2.532c-1.474-1.425-3.02-2.774-4.631-4.041
				c-0.796-0.627-1.6-1.231-2.429-1.818c-1.974-1.421-4.032-2.721-6.164-3.891c-0.465-0.25-0.955-0.451-1.428-0.689
				c-2.16-1.091-4.385-2.049-6.662-2.868C96.738,285.087,96.474,284.925,96.177,284.824L96.177,284.824z M34.127,341.32
				c-0.084-12.73,5.557-24.823,15.365-32.938c9.808-8.115,22.744-11.392,35.233-8.926c1.216,0.226,2.35,0.633,3.522,0.958
				c1.475,0.373,2.929,0.826,4.355,1.355c0.911,0.361,1.756,0.829,2.633,1.249c1.572,0.734,3.098,1.564,4.569,2.483
				c0.698,0.447,1.353,0.948,2.021,1.434c1.493,1.079,2.914,2.252,4.256,3.514c0.567,0.538,1.111,1.092,1.647,1.66
				c1.268,1.348,2.447,2.777,3.53,4.277c0.472,0.654,0.951,1.301,1.386,1.981c0.971,1.542,1.842,3.145,2.608,4.798
				c0.362,0.766,0.762,1.509,1.078,2.298c0.678,1.758,1.238,3.559,1.677,5.391c0.197,0.779,0.476,1.524,0.629,2.319
				c3.108,15.923-3.088,32.23-15.984,42.073s-30.26,11.517-44.799,4.318S34.118,357.543,34.127,341.32z M127.993,494.92h-102.4
				v-42.667c0-28.277,22.923-51.2,51.2-51.2s51.2,22.923,51.2,51.2V494.92z M108.502,391.85
				c12.301-7.727,21.377-19.659,25.538-33.578c0.833,0.034,1.631,0.114,2.486,0.114s1.654-0.08,2.486-0.114
				c4.161,13.918,13.237,25.851,25.539,33.578c-11.808,6.226-21.546,15.756-28.025,27.427
				C130.048,407.607,120.31,398.076,108.502,391.85z M247.46,494.92h-102.4v-42.667c0-28.277,22.923-51.2,51.2-51.2
				s51.2,22.923,51.2,51.2V494.92z M227.969,391.85c12.301-7.727,21.377-19.659,25.538-33.577c0.833,0.033,1.629,0.114,2.486,0.114
				c0.857,0,1.654-0.08,2.486-0.114c4.161,13.918,13.237,25.85,25.539,33.577c-11.808,6.226-21.546,15.756-28.025,27.427
				C249.514,407.607,239.776,398.076,227.969,391.85z M366.927,494.92h-102.4v-42.667c0-28.277,22.923-51.2,51.2-51.2
				s51.2,22.923,51.2,51.2V494.92z M347.436,391.85c12.301-7.727,21.377-19.659,25.538-33.577c0.833,0.033,1.629,0.114,2.486,0.114
				s1.654-0.08,2.486-0.114c4.161,13.918,13.237,25.85,25.539,33.577c-11.808,6.226-21.546,15.756-28.025,27.427
				C368.981,407.607,359.243,398.076,347.436,391.85z M486.393,494.92h-102.4v-42.667c0-28.277,22.923-51.2,51.2-51.2
				s51.2,22.923,51.2,51.2V494.92z"/>
		</g>
	</g>
</g>
<g>
</g>
<g>
</g>
<g>
</g>
<g>
</g>
<g>
</g>
<g>
</g>
<g>
</g>
<g>
</g>
<g>
</g>
<g>
</g>
<g>
</g>
<g>
</g>
<g>
</g>
<g>
</g>
<g>
</g>
</svg>
